<svg width="100" height="77" viewBox="0 0 100 77" fill="none" xmlns="http://www.w3.org/2000/svg">
<path d="M8.8778 70.0914C3.10134 63.956 0 57.0748 0 45.92C0 26.2913 13.7794 8.69833 33.8175 0L38.8256 7.72812C20.1223 17.8453 16.4657 30.9741 15.0076 39.2519C18.0192 37.6928 21.9618 37.1488 25.8258 37.5077C35.943 38.4443 43.9179 46.75 43.9179 57.0748C43.9179 62.2806 41.8499 67.2733 38.1688 70.9544C34.4877 74.6355 29.495 76.7035 24.2892 76.7035C21.4102 76.6783 18.5651 76.0808 15.9193 74.9456C13.2734 73.8105 10.8799 72.1604 8.8778 70.0914ZM64.9599 70.0914C59.1835 63.956 56.0821 57.0748 56.0821 45.92C56.0821 26.2913 69.8615 8.69833 89.8996 0L94.9078 7.72812C76.2044 17.8453 72.5478 30.9741 71.0897 39.2519C74.1013 37.6928 78.0439 37.1488 81.9079 37.5077C92.0251 38.4443 100 46.75 100 57.0748C100 62.2806 97.932 67.2733 94.2509 70.9544C90.5698 74.6355 85.5771 76.7035 80.3713 76.7035C77.4923 76.6783 74.6472 76.0808 72.0014 74.9456C69.3555 73.8105 66.962 72.1604 64.9599 70.0914Z" fill="#243647" fill-opacity="0.15"/>
</svg>
